<svg width="607.7" height="97.2" viewBox="0 0 607.7 97.2" xmlns="http://www.w3.org/2000/svg"><g id="svgGroup" stroke-linecap="round" fill-rule="evenodd" font-size="9pt" stroke="#000" stroke-width="0.25mm" fill="#000" style="stroke:#000;stroke-width:0.25mm;fill:#000"><path d="M 9 75.2 L 0 75.2 L 0 23.2 L 8.7 23.2 L 8.7 31.9 Q 11.5 27.7 15.8 24.85 A 17.205 17.205 0 0 1 25.002 22.009 A 20.858 20.858 0 0 1 25.6 22 A 20.994 20.994 0 0 1 30.017 22.44 Q 33.003 23.082 35.285 24.663 A 13.128 13.128 0 0 1 35.75 25 A 15.751 15.751 0 0 1 41.198 32.69 A 19.154 19.154 0 0 1 41.3 33 Q 44.4 28.4 48.65 25.2 A 15.669 15.669 0 0 1 55.441 22.317 A 21.446 21.446 0 0 1 59.2 22 A 21.437 21.437 0 0 1 64.088 22.523 Q 67.674 23.362 70.163 25.551 A 12.994 12.994 0 0 1 71.85 27.35 A 18.992 18.992 0 0 1 75.261 34.622 Q 76 37.672 76 41.3 L 76 75.2 L 67 75.2 L 67 42 A 19.042 19.042 0 0 0 66.663 38.311 Q 66.227 36.105 65.228 34.361 A 10.982 10.982 0 0 0 64.5 33.25 A 7.974 7.974 0 0 0 58.687 29.954 A 10.678 10.678 0 0 0 57.6 29.9 A 11.926 11.926 0 0 0 50.841 32.027 A 15.996 15.996 0 0 0 49.25 33.25 Q 45.4 36.6 42.5 41.1 L 42.5 75.2 L 33.5 75.2 L 33.5 42 A 19.042 19.042 0 0 0 33.163 38.311 Q 32.727 36.105 31.728 34.361 A 10.982 10.982 0 0 0 31 33.25 A 7.974 7.974 0 0 0 25.187 29.954 A 10.678 10.678 0 0 0 24.1 29.9 A 12.02 12.02 0 0 0 17.781 31.728 A 16.244 16.244 0 0 0 15.8 33.15 Q 11.9 36.4 9 40.8 L 9 75.2 Z M 434.7 75.2 L 394.1 75.2 Q 393.8 73.4 393.8 71.5 A 32.192 32.192 0 0 1 394.435 64.975 A 25.813 25.813 0 0 1 396.05 59.85 Q 398.3 54.7 401.9 50.45 Q 405.5 46.2 409.55 42.55 Q 413.6 38.9 417.15 35.55 A 46.218 46.218 0 0 0 420.569 31.977 A 35.601 35.601 0 0 0 423 28.8 Q 425.3 25.4 425.3 21.7 A 9.278 9.278 0 0 0 424.476 17.754 A 9.139 9.139 0 0 0 422.2 14.75 A 10.723 10.723 0 0 0 416.882 12.23 A 15.011 15.011 0 0 0 414.2 12 A 18.533 18.533 0 0 0 409.243 12.645 A 16.281 16.281 0 0 0 406.55 13.65 A 25.364 25.364 0 0 0 400.762 17.501 A 28.825 28.825 0 0 0 400.1 18.1 L 395.1 12 Q 399.1 8.4 403.95 6.2 A 24.132 24.132 0 0 1 410.256 4.363 A 32.297 32.297 0 0 1 415.2 4 A 26.13 26.13 0 0 1 420.402 4.495 A 19.778 19.778 0 0 1 425.5 6.25 A 17.784 17.784 0 0 1 430.386 9.862 A 16.365 16.365 0 0 1 432.35 12.4 Q 434.8 16.3 434.8 21.1 Q 434.8 25.9 432.7 30 A 34.778 34.778 0 0 1 427.708 37.248 A 38.693 38.693 0 0 1 427.3 37.7 Q 424 41.3 420.2 44.65 Q 416.4 48 412.9 51.5 A 45.932 45.932 0 0 0 408.326 56.803 A 40.289 40.289 0 0 0 406.95 58.8 Q 404.5 62.6 403.9 67 L 434.7 67 L 434.7 75.2 Z M 87 71 L 90.8 63.5 A 18.557 18.557 0 0 0 93.944 65.626 Q 95.498 66.47 97.35 67.15 A 24.073 24.073 0 0 0 104.961 68.587 A 27.464 27.464 0 0 0 105.8 68.6 Q 111.192 68.6 114.035 66.885 A 7.738 7.738 0 0 0 114.25 66.75 Q 117.1 64.9 117.1 62 A 7.123 7.123 0 0 0 116.786 59.853 A 6.212 6.212 0 0 0 116.05 58.3 A 6.384 6.384 0 0 0 115.121 57.206 Q 114.107 56.234 112.434 55.281 A 22.3 22.3 0 0 0 112.2 55.15 A 28.462 28.462 0 0 0 110.206 54.157 Q 108.09 53.195 105.101 52.146 A 103.602 103.602 0 0 0 104.1 51.8 A 46.616 46.616 0 0 1 99.702 50.057 Q 97.588 49.083 95.912 47.995 A 19.335 19.335 0 0 1 93.15 45.85 A 11.324 11.324 0 0 1 89.856 39.854 A 16.794 16.794 0 0 1 89.5 36.3 Q 89.5 30.3 94.75 26.15 Q 99.154 22.669 106.408 22.108 A 37.527 37.527 0 0 1 109.3 22 A 40.794 40.794 0 0 1 113.746 22.231 Q 116.054 22.484 118.07 23.016 A 25.234 25.234 0 0 1 118.2 23.05 Q 122.1 24.1 125.2 25.7 L 122.7 33.1 Q 120 31.5 116.55 30.5 A 25.024 25.024 0 0 0 112.067 29.653 A 31.837 31.837 0 0 0 108.9 29.5 A 20.632 20.632 0 0 0 105.963 29.695 Q 102.877 30.14 101 31.6 A 9.322 9.322 0 0 0 99.642 32.874 Q 98.94 33.692 98.605 34.565 A 4.529 4.529 0 0 0 98.3 36.2 A 4.921 4.921 0 0 0 99.795 39.752 A 7.082 7.082 0 0 0 100.4 40.3 A 9.88 9.88 0 0 0 101.7 41.169 Q 103.973 42.471 108.398 43.934 A 84.459 84.459 0 0 0 108.6 44 A 67.753 67.753 0 0 1 113.662 45.898 Q 119.589 48.417 122.4 51.3 Q 126.3 55.3 126.3 61.3 Q 126.3 68.048 121.049 72.055 A 16.618 16.618 0 0 1 120.65 72.35 Q 115.91 75.748 108.462 76.295 A 40.423 40.423 0 0 1 105.5 76.4 Q 99.6 76.4 94.85 74.9 A 30.883 30.883 0 0 1 91.01 73.415 Q 89.029 72.484 87.448 71.336 A 18.229 18.229 0 0 1 87 71 Z M 208.1 75.2 L 199.1 75.2 L 199.1 32.9 L 191.1 32.9 L 191.1 25.1 L 199.1 25.1 L 199.1 19 A 25.495 25.495 0 0 1 199.726 13.182 Q 200.834 8.452 203.902 5.203 A 16.387 16.387 0 0 1 204 5.1 A 16.367 16.367 0 0 1 214.404 0.125 A 22.463 22.463 0 0 1 216.8 0 A 29.982 29.982 0 0 1 220.31 0.195 Q 222.055 0.401 223.571 0.825 A 17.884 17.884 0 0 1 224 0.95 Q 227.1 1.9 229.9 3.3 L 227.2 10.9 Q 225.1 9.8 222.7 8.9 A 14.172 14.172 0 0 0 219.078 8.079 A 17.356 17.356 0 0 0 217.4 8 A 10.802 10.802 0 0 0 214.371 8.405 A 8.291 8.291 0 0 0 210.65 10.65 A 8.462 8.462 0 0 0 208.703 14.019 Q 208.1 15.92 208.1 18.4 L 208.1 25.1 L 223.5 25.1 L 223.5 32.9 L 208.1 32.9 L 208.1 75.2 Z M 242.9 75.2 L 233.9 75.2 L 233.9 32.9 L 225.9 32.9 L 225.9 25.1 L 233.9 25.1 L 233.9 19 A 25.495 25.495 0 0 1 234.526 13.182 Q 235.634 8.452 238.702 5.203 A 16.387 16.387 0 0 1 238.8 5.1 A 16.367 16.367 0 0 1 249.204 0.125 A 22.463 22.463 0 0 1 251.6 0 A 29.982 29.982 0 0 1 255.11 0.195 Q 256.855 0.401 258.371 0.825 A 17.884 17.884 0 0 1 258.8 0.95 Q 261.9 1.9 264.7 3.3 L 262 10.9 Q 259.9 9.8 257.5 8.9 A 14.172 14.172 0 0 0 253.878 8.079 A 17.356 17.356 0 0 0 252.2 8 A 10.802 10.802 0 0 0 249.171 8.405 A 8.291 8.291 0 0 0 245.45 10.65 A 8.462 8.462 0 0 0 243.503 14.019 Q 242.9 15.92 242.9 18.4 L 242.9 25.1 L 258.3 25.1 L 258.3 32.9 L 242.9 32.9 L 242.9 75.2 Z M 585.9 75.2 L 576.9 75.2 L 576.9 32.9 L 568.9 32.9 L 568.9 25.1 L 576.9 25.1 L 576.9 19 A 25.495 25.495 0 0 1 577.526 13.182 Q 578.634 8.452 581.702 5.203 A 16.387 16.387 0 0 1 581.8 5.1 A 16.367 16.367 0 0 1 592.204 0.125 A 22.463 22.463 0 0 1 594.6 0 A 29.982 29.982 0 0 1 598.11 0.195 Q 599.855 0.401 601.371 0.825 A 17.884 17.884 0 0 1 601.8 0.95 Q 604.9 1.9 607.7 3.3 L 605 10.9 Q 602.9 9.8 600.5 8.9 A 14.172 14.172 0 0 0 596.878 8.079 A 17.356 17.356 0 0 0 595.2 8 A 10.802 10.802 0 0 0 592.171 8.405 A 8.291 8.291 0 0 0 588.45 10.65 A 8.462 8.462 0 0 0 586.503 14.019 Q 585.9 15.92 585.9 18.4 L 585.9 25.1 L 601.3 25.1 L 601.3 32.9 L 585.9 32.9 L 585.9 75.2 Z M 549 28.4 L 549 1.2 L 558 1.2 L 558 62.6 A 12.15 12.15 0 0 0 558.102 64.236 Q 558.434 66.67 559.85 67.55 Q 561.7 68.7 563.9 68.7 L 562 75.7 Q 552.5 75.7 550.4 68.1 Q 548.2 71.2 544.25 73.8 Q 540.3 76.4 534.3 76.4 Q 527.9 76.4 522.6 73.1 A 22.692 22.692 0 0 1 515.062 65.309 A 27.622 27.622 0 0 1 514.2 63.75 A 27.533 27.533 0 0 1 511.612 55.808 A 37.221 37.221 0 0 1 511.1 49.5 A 33.94 33.94 0 0 1 511.989 41.586 A 27.963 27.963 0 0 1 514.25 35.4 A 27.291 27.291 0 0 1 518.869 28.809 A 24.186 24.186 0 0 1 522.65 25.6 Q 527.9 22 534.2 22 A 21.642 21.642 0 0 1 538.472 22.402 A 15.942 15.942 0 0 1 543.15 24.1 A 34.343 34.343 0 0 1 545.73 25.689 Q 546.954 26.524 547.925 27.374 A 16.59 16.59 0 0 1 549 28.4 Z M 464.2 97.2 L 455.2 97.2 L 455.2 36.5 A 11.015 11.015 0 0 0 455.073 34.764 Q 454.742 32.698 453.55 31.65 A 5.718 5.718 0 0 0 450.76 30.328 A 7.991 7.991 0 0 0 449.3 30.2 L 451.2 23.2 Q 457.062 23.2 460.122 26.164 A 10.15 10.15 0 0 1 462.7 30.5 Q 463.655 29.067 465.752 27.178 A 38.58 38.58 0 0 1 465.95 27 A 18.902 18.902 0 0 1 468.651 25.016 A 25.569 25.569 0 0 1 471.55 23.5 A 16.955 16.955 0 0 1 476.109 22.211 A 21.886 21.886 0 0 1 479.2 22 Q 485.2 22 490.45 25.15 A 22.329 22.329 0 0 1 497.628 32.117 A 27.464 27.464 0 0 1 498.9 34.25 Q 502.1 40.2 502.1 48.7 Q 502.1 57 498.9 63.25 A 27.846 27.846 0 0 1 494.966 69.082 A 23.029 23.029 0 0 1 490.55 72.95 Q 485.4 76.4 479.4 76.4 Q 474.8 76.4 470.8 74.55 A 30.352 30.352 0 0 1 467.384 72.711 Q 465.591 71.585 464.2 70.3 L 464.2 97.2 Z M 381 52.9 L 344.6 52.9 A 24.088 24.088 0 0 0 345.739 57.925 Q 347.075 61.738 349.7 64.3 Q 353.9 68.4 360.8 68.4 Q 365.3 68.4 368.9 67.45 Q 372.5 66.5 375.8 65 L 377.9 72.7 A 40.77 40.77 0 0 1 373.565 74.326 A 51.863 51.863 0 0 1 369.8 75.35 A 38.914 38.914 0 0 1 364.708 76.169 A 52.025 52.025 0 0 1 359.7 76.4 A 28.318 28.318 0 0 1 351.954 75.395 A 21.108 21.108 0 0 1 341.95 69.25 A 23.521 23.521 0 0 1 336.745 59.71 Q 335.4 55.045 335.4 49.2 A 35.359 35.359 0 0 1 336.233 41.378 A 28.84 28.84 0 0 1 338.35 35.25 A 24.642 24.642 0 0 1 343.366 28.168 A 22.887 22.887 0 0 1 346.6 25.55 A 21.048 21.048 0 0 1 356.859 22.078 A 26.205 26.205 0 0 1 358.9 22 Q 366.4 22 371.35 25.25 Q 376.3 28.5 378.8 34 A 28.185 28.185 0 0 1 381.226 43.864 A 33.434 33.434 0 0 1 381.3 46.1 A 75.204 75.204 0 0 1 381.009 52.797 A 69.426 69.426 0 0 1 381 52.9 Z M 328.6 25.1 L 325.9 32.7 A 30.422 30.422 0 0 0 322.996 31.424 A 23.42 23.42 0 0 0 320.55 30.65 A 20.543 20.543 0 0 0 317.507 30.125 A 26.355 26.355 0 0 0 314.9 30 A 15.889 15.889 0 0 0 307.647 31.643 A 16.132 16.132 0 0 0 303.15 35.05 Q 298.4 40.1 298.4 49 A 25.192 25.192 0 0 0 299.105 55.06 A 21.45 21.45 0 0 0 300.4 58.8 A 18.564 18.564 0 0 0 303.31 63.378 A 16.275 16.275 0 0 0 305.95 65.8 Q 309.5 68.4 314.3 68.4 Q 317.465 68.4 319.868 67.81 A 15.08 15.08 0 0 0 320.8 67.55 Q 323.489 66.703 326.576 65.113 A 49.095 49.095 0 0 0 326.6 65.1 L 329.4 72.7 Q 326.3 74.4 322.45 75.4 Q 318.6 76.4 313.7 76.4 A 26.803 26.803 0 0 1 306.661 75.51 A 22.074 22.074 0 0 1 300.75 72.95 Q 295.2 69.5 292.2 63.35 Q 289.2 57.2 289.2 49.2 Q 289.2 41.7 292.25 35.5 Q 295.3 29.3 301 25.65 A 23.067 23.067 0 0 1 310.668 22.229 A 29.608 29.608 0 0 1 314.4 22 Q 318.8 22 322.15 22.8 Q 325.5 23.6 328.6 25.1 Z M 146.9 72.95 A 24.559 24.559 0 0 0 151.498 75.04 Q 155.553 76.4 160.2 76.4 Q 167.6 76.4 173.45 73 Q 179.3 69.6 182.7 63.45 A 26.255 26.255 0 0 0 185.353 56.309 A 34.184 34.184 0 0 0 186.1 49 A 34.542 34.542 0 0 0 185.615 43.092 A 25.795 25.795 0 0 0 182.65 34.65 Q 179.2 28.6 173.35 25.3 A 24.848 24.848 0 0 0 168.709 23.273 A 27.738 27.738 0 0 0 160.2 22 A 31.325 31.325 0 0 0 158.62 22.04 A 26.169 26.169 0 0 0 147 25.3 Q 141.1 28.6 137.7 34.7 A 26.023 26.023 0 0 0 134.951 42.29 A 35.006 35.006 0 0 0 134.3 49.2 A 34.82 34.82 0 0 0 134.565 53.554 A 27.451 27.451 0 0 0 137.65 63.35 Q 141 69.5 146.9 72.95 Z M 276.7 75.2 L 267.7 75.2 L 267.7 23.2 L 276.7 23.2 L 276.7 75.2 Z M 160.2 68.4 Q 168.1 68.4 172.5 63.05 A 18.802 18.802 0 0 0 176.319 54.96 A 27.105 27.105 0 0 0 176.9 49.2 Q 176.9 44 174.7 39.65 A 19.198 19.198 0 0 0 170.528 34.081 A 18.17 18.17 0 0 0 168.75 32.65 Q 165 30 160.2 30 A 19.249 19.249 0 0 0 154.974 30.672 A 14.037 14.037 0 0 0 147.9 35.2 A 17.878 17.878 0 0 0 144.226 42.574 Q 143.5 45.506 143.5 49 Q 143.5 54.2 145.7 58.65 A 19.437 19.437 0 0 0 149.23 63.69 A 17.627 17.627 0 0 0 151.65 65.75 Q 155.4 68.4 160.2 68.4 Z M 464.2 36.6 L 464.2 62.2 Q 466.8 64.9 470.2 66.65 Q 473.6 68.4 477.6 68.4 Q 484.294 68.4 488.517 63.216 A 17.38 17.38 0 0 0 488.65 63.05 A 18.792 18.792 0 0 0 492.144 55.745 Q 492.805 53.055 492.888 49.908 A 34.555 34.555 0 0 0 492.9 49 Q 492.9 43 490.75 38.7 Q 488.6 34.4 485.05 32.1 Q 481.5 29.8 477.2 29.8 A 14.741 14.741 0 0 0 471.573 30.863 A 14.054 14.054 0 0 0 469.45 31.95 Q 466 34.1 464.2 36.6 Z M 549 62.1 L 549 36.3 A 15.847 15.847 0 0 0 546.889 34.127 Q 545.768 33.164 544.369 32.266 A 28.139 28.139 0 0 0 543.7 31.85 Q 540.3 29.8 536.2 29.8 A 14.946 14.946 0 0 0 531.244 30.6 A 13.385 13.385 0 0 0 527.8 32.4 A 16.69 16.69 0 0 0 522.63 38.55 A 19.924 19.924 0 0 0 522.25 39.35 A 22.19 22.19 0 0 0 520.51 45.715 A 28.113 28.113 0 0 0 520.3 49.2 A 24.757 24.757 0 0 0 520.893 54.719 A 20.327 20.327 0 0 0 522.4 59.05 A 18.205 18.205 0 0 0 525.44 63.564 A 16.122 16.122 0 0 0 528.15 65.9 Q 531.8 68.4 536.3 68.4 Q 540 68.4 543.35 66.65 Q 546.7 64.9 549 62.1 Z M 344.5 45.6 L 373 45.6 A 24.355 24.355 0 0 0 372.596 41.015 Q 372.1 38.431 370.996 36.407 A 12.422 12.422 0 0 0 369.2 33.9 A 12.488 12.488 0 0 0 362.239 30.124 A 18.395 18.395 0 0 0 358.7 29.8 A 13.58 13.58 0 0 0 353.588 30.735 A 12.524 12.524 0 0 0 349.1 33.85 Q 345.3 37.9 344.5 45.6 Z M 267.837 12.488 A 5.973 5.973 0 0 0 272.2 14.3 A 8.175 8.175 0 0 0 273.696 14.169 A 5.647 5.647 0 0 0 276.8 12.55 Q 278.5 10.8 278.5 8 A 7.26 7.26 0 0 0 278.5 7.919 A 6.06 6.06 0 0 0 276.65 3.55 A 7.395 7.395 0 0 0 276.592 3.493 A 6.059 6.059 0 0 0 272.2 1.7 A 8.264 8.264 0 0 0 270.544 1.858 A 5.661 5.661 0 0 0 267.6 3.4 A 5.588 5.588 0 0 0 266.129 6.032 A 7.987 7.987 0 0 0 265.9 8 A 5.992 5.992 0 0 0 266.392 10.419 A 6.643 6.643 0 0 0 267.75 12.4 A 7.466 7.466 0 0 0 267.837 12.488 Z" vector-effect="non-scaling-stroke"/></g></svg>