<svg viewBox="0 0 333.8 154.5" xmlns="http://www.w3.org/2000/svg">
  <defs>
    <linearGradient id="a" x1="4.494" y1="-1712.086" x2="13.832" y2="-1695.914" gradientTransform="matrix(2.689286, 0, 0, 2.689286, 69.921021, 4621.453728)" gradientUnits="userSpaceOnUse">
      <stop offset="0" stop-color="#2368c4"></stop>
      <stop offset="0.5" stop-color="#1a5dbe"></stop>
      <stop offset="1" stop-color="#1146ac"></stop>
    </linearGradient>
    <linearGradient id="gradient-1" x1="4.494" y1="-1748.086" x2="13.832" y2="-1731.914" gradientTransform="matrix(2.689286, 0, 0, 2.689286, -5.378938, 4763.929802)" gradientUnits="userSpaceOnUse">
      <stop offset="0" stop-color="#ca4c28"></stop>
      <stop offset="0.5" stop-color="#c5401e"></stop>
      <stop offset="1" stop-color="#b62f14"></stop>
    </linearGradient>
    <linearGradient id="gradient-2" x1="4.494" y1="-2092.086" x2="13.832" y2="-2075.914" gradientTransform="matrix(2.689286, 0, 0, 2.689286, 69.921295, 5724.005974)" gradientUnits="userSpaceOnUse">
      <stop offset="0" stop-color="#18884f"></stop>
      <stop offset="0.5" stop-color="#117e43"></stop>
      <stop offset="1" stop-color="#0b6631"></stop>
    </linearGradient>
  </defs>
  <title>file_type_word</title>
  <path d="M 147.389 3.951 L 96.021 3.951 C 94.25 3.949 92.814 5.383 92.812 7.154 L 92.812 21.431 L 122.58 30.171 L 150.6 21.431 L 150.6 7.154 C 150.598 5.382 149.16 3.948 147.389 3.951 Z" style="fill:#41a5ee"></path>
  <path d="M 150.6 21.431 L 92.812 21.431 L 92.812 38.911 L 122.58 44.156 L 150.6 38.911 L 150.6 21.431 Z" style="fill:#2b7cd3"></path>
  <path d="M 92.812 38.911 L 92.812 56.392 L 120.829 59.888 L 150.6 56.392 L 150.6 38.911 L 92.812 38.911 Z" style="fill:#185abd"></path>
  <path d="M 96.021 73.872 L 147.386 73.872 C 149.159 73.877 150.598 72.442 150.6 70.669 L 150.6 56.392 L 92.812 56.392 L 92.812 70.669 C 92.814 72.44 94.25 73.874 96.021 73.872 Z" style="fill:#103f91"></path>
  <path d="M 114.117 17.935 L 92.812 17.935 L 92.812 61.636 L 114.117 61.636 C 115.883 61.627 117.315 60.199 117.328 58.433 L 117.328 21.138 C 117.315 19.371 115.883 17.944 114.117 17.935 Z" style="opacity:0.10000000149011612;isolation:isolate"></path>
  <path d="M 112.366 19.683 L 92.812 19.683 L 92.812 63.384 L 112.366 63.384 C 114.133 63.375 115.564 61.948 115.577 60.181 L 115.577 22.886 C 115.564 21.119 114.133 19.692 112.366 19.683 Z" style="opacity:0.20000000298023224;isolation:isolate"></path>
  <path d="M 112.366 19.683 L 92.812 19.683 L 92.812 59.888 L 112.366 59.888 C 114.133 59.879 115.564 58.451 115.577 56.685 L 115.577 22.886 C 115.564 21.119 114.133 19.692 112.366 19.683 Z" style="opacity:0.20000000298023224;isolation:isolate"></path>
  <path d="M 110.615 19.683 L 92.812 19.683 L 92.812 59.888 L 110.615 59.888 C 112.382 59.879 113.813 58.451 113.826 56.685 L 113.826 22.886 C 113.813 21.119 112.382 19.692 110.615 19.683 Z" style="opacity:0.20000000298023224;isolation:isolate"></path>
  <path d="M 78.511 19.683 L 110.615 19.683 C 112.386 19.682 113.823 21.115 113.826 22.886 L 113.826 54.937 C 113.823 56.708 112.386 58.141 110.615 58.14 L 78.511 58.14 C 76.739 58.143 75.301 56.708 75.3 54.937 L 75.3 22.886 C 75.301 21.114 76.739 19.68 78.511 19.683 Z" style="fill:url(#a)"></path>
  <path d="M 88.477 44.258 C 88.539 44.753 88.582 45.183 88.601 45.551 L 88.676 45.551 C 88.703 45.202 88.762 44.779 88.851 44.287 C 88.94 43.795 89.018 43.378 89.09 43.037 L 92.465 28.496 L 96.833 28.496 L 100.329 42.819 C 100.533 43.705 100.678 44.603 100.765 45.508 L 100.824 45.508 C 100.888 44.627 101.009 43.751 101.187 42.886 L 103.981 28.477 L 107.953 28.477 L 103.048 49.314 L 98.403 49.314 L 95.077 35.528 C 94.98 35.13 94.871 34.612 94.749 33.974 C 94.627 33.336 94.551 32.869 94.523 32.575 L 94.466 32.575 C 94.429 32.914 94.353 33.417 94.24 34.084 C 94.127 34.754 94.039 35.246 93.971 35.569 L 90.844 49.322 L 86.121 49.322 L 81.189 28.496 L 85.223 28.496 L 88.265 43.066 C 88.356 43.46 88.426 43.857 88.477 44.258 Z" style="fill:#fff"></path>
  <title>file_type_powerpoint</title>
  <path d="M 45.529 88.07 L 40.277 49.613 L 39.885 49.613 C 20.796 49.645 5.32 65.093 5.252 84.181 L 5.252 84.574 L 45.529 88.07 Z" style="fill:#ed6c47"></path>
  <path d="M 40.67 49.613 L 40.277 49.613 L 40.277 84.574 L 57.787 91.566 L 75.3 84.574 L 75.3 84.181 C 75.232 65.094 59.757 49.647 40.67 49.613 Z" style="fill:#ff8f6b"></path>
  <path d="M 75.3 84.574 L 75.3 84.958 C 75.229 104.049 59.752 119.498 40.662 119.534 L 39.89 119.534 C 20.801 119.495 5.326 104.048 5.252 84.958 L 5.252 84.574 L 75.3 84.574 Z" style="fill:#d35230"></path>
  <path d="M 42.028 66.795 L 42.028 104.098 C 42.018 105.395 41.232 106.561 40.032 107.056 C 39.649 107.217 39.238 107.301 38.822 107.301 L 13.519 107.301 C 13.029 106.741 12.556 106.147 12.118 105.553 C 7.657 99.615 5.247 92.388 5.252 84.961 L 5.252 84.192 C 5.243 77.493 7.205 70.939 10.891 65.345 C 11.276 64.751 11.679 64.157 12.118 63.597 L 38.822 63.597 C 40.585 63.609 42.012 65.032 42.028 66.795 Z" style="opacity:0.10000000149011612;isolation:isolate"></path>
  <path d="M 40.277 68.545 L 40.277 105.849 C 40.277 106.263 40.194 106.672 40.032 107.053 C 39.536 108.252 38.371 109.037 37.074 109.046 L 15.114 109.046 C 14.56 108.483 14.028 107.901 13.519 107.298 C 13.029 106.739 12.556 106.144 12.118 105.55 C 7.657 99.612 5.247 92.385 5.252 84.958 L 5.252 84.189 C 5.244 77.491 7.205 70.938 10.891 65.345 L 37.072 65.345 C 38.835 65.357 40.263 66.782 40.277 68.545 Z" style="opacity:0.20000000298023224;isolation:isolate"></path>
  <path d="M 40.277 68.545 L 40.277 102.353 C 40.261 104.115 38.834 105.538 37.072 105.55 L 12.118 105.55 C 7.657 99.612 5.247 92.385 5.252 84.958 L 5.252 84.189 C 5.244 77.491 7.205 70.938 10.891 65.345 L 37.072 65.345 C 38.835 65.357 40.263 66.782 40.277 68.545 Z" style="opacity:0.20000000298023224;isolation:isolate"></path>
  <path d="M 38.526 68.545 L 38.526 102.353 C 38.51 104.115 37.083 105.538 35.321 105.55 L 12.118 105.55 C 7.657 99.612 5.247 92.385 5.252 84.958 L 5.252 84.189 C 5.244 77.491 7.205 70.938 10.891 65.345 L 35.321 65.345 C 37.084 65.357 38.512 66.782 38.526 68.545 Z" style="opacity:0.20000000298023224;isolation:isolate"></path>
  <path d="M 3.211 65.345 L 35.315 65.345 C 37.086 65.344 38.524 66.777 38.526 68.548 L 38.526 100.599 C 38.524 102.37 37.086 103.804 35.315 103.802 L 3.211 103.802 C 1.439 103.805 0.001 102.371 0 100.599 L 0 68.548 C 0.001 66.777 1.439 65.342 3.211 65.345 Z" style="fill: url(#gradient-1);"></path>
  <path d="M 19.613 73.892 C 21.703 73.751 23.775 74.357 25.459 75.602 C 26.863 76.852 27.613 78.678 27.492 80.553 C 27.516 81.857 27.168 83.14 26.489 84.254 C 25.803 85.349 24.813 86.222 23.641 86.768 C 22.302 87.389 20.839 87.696 19.363 87.666 L 15.294 87.666 L 15.294 95.196 L 11.136 95.196 L 11.136 73.892 L 19.613 73.892 Z M 15.291 84.412 L 18.87 84.412 C 20.005 84.494 21.131 84.158 22.036 83.468 C 22.785 82.754 23.179 81.745 23.111 80.712 C 23.111 78.365 21.744 77.191 19.01 77.189 L 15.291 77.189 L 15.291 84.412 Z" style="fill:#fff"></path>
  <title>file_type_excel</title>
  <path d="M 122.58 117.787 L 92.813 112.543 L 92.813 151.293 C 92.814 153.063 94.251 154.497 96.021 154.496 L 147.386 154.496 C 149.159 154.5 150.599 153.065 150.6 151.293 L 150.6 137.015 L 122.58 117.787 Z" style="fill:#185c37"></path>
  <path d="M 122.58 84.574 L 96.021 84.574 C 94.251 84.573 92.814 86.007 92.813 87.777 L 92.813 102.055 L 122.58 119.535 L 138.342 124.779 L 150.6 119.535 L 150.6 102.055 L 122.58 84.574 Z" style="fill:#21a366"></path>
  <path d="M 92.813 102.055 L 122.58 102.055 L 122.58 119.535 L 92.813 119.535 L 92.813 102.055 Z" style="fill:#107c41"></path>
  <path d="M 114.117 98.559 L 92.813 98.559 L 92.813 142.259 L 114.117 142.259 C 115.884 142.251 117.315 140.823 117.328 139.056 L 117.328 101.761 C 117.315 99.995 115.884 98.567 114.117 98.559 Z" style="opacity:0.10000000149011612;isolation:isolate"></path>
  <path d="M 112.367 100.307 L 92.813 100.307 L 92.813 144.007 L 112.367 144.007 C 114.133 143.999 115.564 142.571 115.578 140.805 L 115.578 103.51 C 115.564 101.743 114.133 100.315 112.367 100.307 Z" style="opacity:0.20000000298023224;isolation:isolate"></path>
  <path d="M 112.367 100.307 L 92.813 100.307 L 92.813 140.511 L 112.367 140.511 C 114.133 140.503 115.564 139.075 115.578 137.308 L 115.578 103.51 C 115.564 101.743 114.133 100.315 112.367 100.307 Z" style="opacity:0.20000000298023224;isolation:isolate"></path>
  <path d="M 110.616 100.307 L 92.813 100.307 L 92.813 140.511 L 110.616 140.511 C 112.382 140.503 113.814 139.075 113.827 137.308 L 113.827 103.51 C 113.814 101.743 112.382 100.315 110.616 100.307 Z" style="opacity:0.20000000298023224;isolation:isolate"></path>
  <path d="M 78.511 100.307 L 110.616 100.307 C 112.387 100.305 113.824 101.739 113.827 103.51 L 113.827 135.56 C 113.824 137.331 112.387 138.765 110.616 138.763 L 78.511 138.763 C 76.74 138.766 75.302 137.332 75.3 135.56 L 75.3 103.51 C 75.302 101.738 76.74 100.304 78.511 100.307 Z" style="fill: url(#gradient-2);"></path>
  <path d="M 85.251 129.951 L 92.003 119.505 L 85.818 109.119 L 90.785 109.119 L 94.16 115.77 C 94.472 116.399 94.698 116.867 94.8 117.179 L 94.846 117.179 C 95.066 116.674 95.3 116.187 95.545 115.711 L 99.154 109.13 L 103.726 109.13 L 97.382 119.457 L 103.887 129.959 L 99.022 129.959 L 95.123 122.668 C 94.942 122.355 94.788 122.026 94.663 121.686 L 94.598 121.686 C 94.485 122.017 94.333 122.334 94.147 122.63 L 90.132 129.951 L 85.251 129.951 Z" style="fill:#fff"></path>
  <path d="M 147.389 84.574 L 122.58 84.574 L 122.58 102.055 L 150.6 102.055 L 150.6 87.777 C 150.599 86.006 149.161 84.571 147.389 84.574 Z" style="fill:#33c481"></path>
  <path d="M 122.58 119.535 L 150.6 119.535 L 150.6 137.015 L 122.58 137.015 L 122.58 119.535 Z" style="fill:#107c41"></path>
  <g transform="matrix(-0.140794, 0.253999, 0.253999, 0.140794, 193.683121, -2.992013)">
    <g>
      <g>
        <g>
          <path d="M149.535,323.088L0,173.554h94.299C106.192,41.217,220.448,21.251,288.212,21.251c32.12,0,55.166,4.378,56.127,4.549
					l-1.279,13.382c-56.511,0-97.049,14.745-120.485,43.829c-26.518,32.903-23.636,75.735-21.647,90.537h98.137L149.535,323.088z" style="fill: rgb(0, 158, 247);"></path>
        </g>
      </g>
    </g>
  </g>
  <g transform="matrix(1.4843, 0, 0, 1.4843, 312.028015, -157.044434)">
    <path fill="#fa0f00" d="M-29.632812 123.94727c-3.551967 0-6.44336 2.89347-6.44336 6.44531v49.49804c0 3.55185 2.891393 6.44532 6.44336 6.44532H8.2167969c3.5519661 0 6.4433591-2.89335 6.4433591-6.44532v-40.70117s.101353-1.19181-.416015-2.35156c-.484969-1.08711-1.275391-1.84375-1.275391-1.84375a1.0584391 1.0584391 0 0 0-.0059-.008l-9.3906254-9.21094a1.0584391 1.0584391 0 0 0-.015625-.0156s-.8017392-.76344-1.9902344-1.27344c-1.39939552-.6005-2.8417968-.53711-2.8417968-.53711l.021484-.002z" color="#000" font-family="sans-serif" overflow="visible" paint-order="markers fill stroke" style="line-height:normal;font-variant-ligatures:normal;font-variant-position:normal;font-variant-caps:normal;font-variant-numeric:normal;font-variant-alternates:normal;font-feature-settings:normal;text-indent:0;text-align:start;text-decoration-line:none;text-decoration-style:solid;text-decoration-color:#000000;text-transform:none;text-orientation:mixed;white-space:normal;shape-padding:0;isolation:auto;mix-blend-mode:normal;solid-color:#000000;solid-opacity:1"></path>
    <path fill="#fa0f00" d="M-29.632812 126.06445h28.3789058a1.0584391 1.0584391 0 0 0 .021484 0s1.13480448.011 1.96484378.36719c.79889772.34282 1.36536982.86176 1.36914062.86524.0000125.00001.00391.004.00391.004l9.3671868 9.18945s.564354.59582.837891 1.20899c.220779.49491.234375 1.40039.234375 1.40039a1.0584391 1.0584391 0 0 0-.002.0449v40.74609c0 2.41592-1.910258 4.32813-4.3261717 4.32813H-29.632812c-2.415914 0-4.326172-1.91209-4.326172-4.32813v-49.49804c0-2.41603 1.910258-4.32813 4.326172-4.32813z" color="#000" font-family="sans-serif" overflow="visible" paint-order="markers fill stroke" style="line-height:normal;font-variant-ligatures:normal;font-variant-position:normal;font-variant-caps:normal;font-variant-numeric:normal;font-variant-alternates:normal;font-feature-settings:normal;text-indent:0;text-align:start;text-decoration-line:none;text-decoration-style:solid;text-decoration-color:#000000;text-transform:none;text-orientation:mixed;white-space:normal;shape-padding:0;isolation:auto;mix-blend-mode:normal;solid-color:#000000;solid-opacity:1"></path>
    <path fill="#ffffff" d="M-23.40766 161.09299c-1.45669-1.45669.11934-3.45839 4.39648-5.58397l2.69124-1.33743 1.04845-2.29399c.57665-1.26169 1.43729-3.32036 1.91254-4.5748l.8641-2.28082-.59546-1.68793c-.73217-2.07547-.99326-5.19438-.52872-6.31588.62923-1.51909 2.69029-1.36323 3.50626.26515.63727 1.27176.57212 3.57488-.18329 6.47946l-.6193 2.38125.5455.92604c.30003.50932 1.1764 1.71867 1.9475 2.68743l1.44924 1.80272 1.8033728-.23533c5.72900399-.74758 7.6912472.523 7.6912472 2.34476 0 2.29921-4.4984914 2.48899-8.2760865-.16423-.8499666-.59698-1.4336605-1.19001-1.4336605-1.19001s-2.3665326.48178-3.531704.79583c-1.202707.32417-1.80274.52719-3.564509 1.12186 0 0-.61814.89767-1.02094 1.55026-1.49858 2.4279-3.24833 4.43998-4.49793 5.1723-1.3991.81993-2.86584.87582-3.60433.13733zm2.28605-.81668c.81883-.50607 2.47616-2.46625 3.62341-4.28553l.46449-.73658-2.11497 1.06339c-3.26655 1.64239-4.76093 3.19033-3.98386 4.12664.43653.52598.95874.48237 2.01093-.16792zm21.21809-5.95578c.80089-.56097.68463-1.69142-.22082-2.1472-.70466-.35471-1.2726074-.42759-3.1031574-.40057-1.1249.0767-2.9337647.3034-3.2403347.37237 0 0 .993716.68678 1.434896.93922.58731.33544 2.0145161.95811 3.0565161 1.27706 1.02785.31461 1.6224.28144 2.0729-.0409zm-8.53152-3.54594c-.4847-.50952-1.30889-1.57296-1.83152-2.3632-.68353-.89643-1.02629-1.52887-1.02629-1.52887s-.4996 1.60694-.90948 2.57394l-1.27876 3.16076-.37075.71695s1.971043-.64627 2.97389-.90822c1.0621668-.27744 3.21787-.70134 3.21787-.70134zm-2.74938-11.02573c.12363-1.0375.1761-2.07346-.15724-2.59587-.9246-1.01077-2.04057-.16787-1.85154 2.23517.0636.8084.26443 2.19033.53292 3.04209l.48817 1.54863.34358-1.16638c.18897-.64151.47882-2.02015.64411-3.06364z"></path>
    <path fill="#ffffff" d="M-20.930423 167.83862h2.364986q1.133514 0 1.840213.2169.706698.20991 1.189489.9446.482795.72769.482795 1.75625 0 .94459-.391832 1.6233-.391833.67871-1.056548.97958-.65772.30087-2.02913.30087h-.818651v3.72941h-1.581322zm1.581322 1.22447v3.33058h.783664q1.049552 0 1.44838-.39184.405826-.39183.405826-1.27345 0-.65772-.265887-1.06355-.265884-.41282-.587747-.50378-.314866-.098-1.000572-.098zm5.50664-1.22447h2.148082q1.560333 0 2.4909318.55276.9375993.55276 1.4133973 1.6443.482791 1.09153.482791 2.42096 0 1.3994-.4338151 2.49793-.4268149 1.09153-1.3154348 1.76324-.8816233.67172-2.5189212.67172h-2.267031zm1.581326 1.26645v7.018h.657715q1.378411 0 2.001144-.9516.6227329-.95858.6227329-2.5539 0-3.5125-2.6238769-3.5125zm6.4722254-1.26645h5.30372941v1.26645H-4.2075842v2.85478h2.9807225v1.26646h-2.9807225v4.16322h-1.5813254z" font-family="Franklin Gothic Medium Cond" letter-spacing="0" style="line-height:125%;-inkscape-font-specification:'Franklin Gothic Medium Cond'" word-spacing="4.26000023"></path>
  </g>
</svg>